0
SECTION
2
HEADER
9
$INSUNITS
70
1
9
$ACADVER
1
AC1014
9
$HANDSEED
5
FFFF
0
ENDSEC
0
SECTION
2
TABLES
0
TABLE
2
VPORT
5
8
100
AcDbSymbolTable
0
ENDTAB
0
TABLE
2
LTYPE
5
5
100
AcDbSymbolTable
0
LTYPE
5
14
100
AcDbSymbolTableRecord
100
AcDbLinetypeTableRecord
2
BYBLOCK
70
0
0
LTYPE
5
15
100
AcDbSymbolTableRecord
100
AcDbLinetypeTableRecord
2
BYLAYER
70
0
0
ENDTAB
0
TABLE
2
LAYER
5
2
100
AcDbSymbolTable
70
2
0
LAYER
5
50
100
AcDbSymbolTableRecord
100
AcDbLayerTableRecord
2
0
70
0
6
CONTINUOUS
0
ENDTAB
0
TABLE
2
STYLE
5
3
100
AcDbSymbolTable
70
1
0
STYLE
5
11
100
AcDbSymbolTableRecord
100
AcDbTextStyleTableRecord
2
STANDARD
70
0
0
ENDTAB
0
TABLE
2
VIEW
5
6
100
AcDbSymbolTable
70
0
0
ENDTAB
0
TABLE
2
UCS
5
7
100
AcDbSymbolTable
70
0
0
ENDTAB
0
TABLE
2
APPID
5
9
100
AcDbSymbolTable
70
2
0
APPID
5
12
100
AcDbSymbolTableRecord
100
AcDbRegAppTableRecord
2
ACAD
70
0
0
ENDTAB
0
TABLE
2
DIMSTYLE
5
A
100
AcDbSymbolTable
70
1
0
ENDTAB
0
TABLE
2
BLOCK_RECORD
5
1
100
AcDbSymbolTable
70
1
0
BLOCK_RECORD
5
1F
100
AcDbSymbolTableRecord
100
AcDbBlockTableRecord
2
*MODEL_SPACE
0
BLOCK_RECORD
5
1B
100
AcDbSymbolTableRecord
100
AcDbBlockTableRecord
2
*PAPER_SPACE
0
ENDTAB
0
ENDSEC
0
SECTION
2
BLOCKS
0
BLOCK
5
20
100
AcDbEntity
100
AcDbBlockBegin
2
*MODEL_SPACE
0
ENDBLK
5
21
100
AcDbEntity
100
AcDbBlockEnd
0
BLOCK
5
1C
100
AcDbEntity
100
AcDbBlockBegin
2
*PAPER_SPACE
0
ENDBLK
5
1D
100
AcDbEntity
100
AcDbBlockEnd
0
ENDSEC
0
SECTION
2
ENTITIES
0
ARC
5
100
100
AcDbEntity
8
0
100
AcDbCircle
10
0
20
0
30
0
40
0.67500000000000004
100
AcDbArc
50
37.358461989714314
51
52.631234997481499
0
SPLINE
5
101
100
AcDbEntity
8
0
100
AcDbSpline
70
1064
71
5
72
21
73
15
74
0
42
0.000000001
43
0.0000000001
44
0.0000000001
40
-0.97652160370866514
40
-0.97652160370866514
40
-0.97652160370866514
40
-0.97652160370866514
40
-0.97652160370866514
40
-0.97652160370866514
40
-0.89999999999999991
40
-0.79999999999999993
40
-0.69999999999999996
40
-0.59999999999999998
40
-0.5
40
-0.40000000000000002
40
-0.30000000000000004
40
-0.20000000000000001
40
-0.10000000000000001
40
0
40
0
40
0
40
0
40
0
40
0
10
0.40968630329093331
20
0.53645329050704116
30
0
10
0.41262517365022283
20
0.54053230368116179
30
0
10
0.41927795998871714
20
0.5498301832941257
30
0
10
0.42924049759102662
20
0.56399059193137779
30
0
10
0.44180877744039476
20
0.58239283030051747
30
0
10
0.45587505033648618
20
0.60406023598891601
30
0
10
0.46834730971267502
20
0.62477878116597418
30
0
10
0.47823943369340377
20
0.6432225142650746
30
0
10
0.48526376699309193
20
0.65913782002280963
30
0
10
0.48922190247027741
20
0.67234977003715268
30
0
10
0.49015818709529618
20
0.68289746342824609
30
0
10
0.4886168513093499
20
0.68931628747737805
30
0
10
0.48623987898689702
20
0.69305391999090105
30
0
10
0.48412151759880562
20
0.69507511939478706
30
0
10
0.48292889950177781
20
0.69596807216375323
30
0
0
LINE
5
102
100
AcDbEntity
8
0
100
AcDbLine
10
0.48292889950177786
20
0.69596807216375323
30
0
11
0.36168534297195643
21
0.76596807216375329
31
0
0
SPLINE
5
103
100
AcDbEntity
8
0
100
AcDbSpline
70
1064
71
5
72
21
73
15
74
0
42
0.000000001
43
0.0000000001
44
0.0000000001
40
0
40
0
40
0
40
0
40
0
40
0
40
0.10000000000000001
40
0.20000000000000001
40
0.30000000000000004
40
0.40000000000000002
40
0.5
40
0.59999999999999998
40
0.69999999999999996
40
0.79999999999999993
40
0.89999999999999991
40
0.97648781873169177
40
0.97648781873169177
40
0.97648781873169177
40
0.97648781873169177
40
0.97648781873169177
40
0.97648781873169177
10
0.36168534297195643
20
0.76596807216375329
30
0
10
0.3602957955164105
20
0.76656962539675033
30
0
10
0.35744771911643775
20
0.76742293861527811
30
0
10
0.35296867395929638
20
0.76765359923314724
30
0
10
0.34657582183947105
20
0.76582738343151002
30
0
10
0.33784471142979677
20
0.75979197164567103
30
0
10
0.32833241461662671
20
0.74979529817367785
30
0
10
0.31802726114794233
20
0.73577818517775118
30
0
10
0.30698037523414962
20
0.71799987472217708
30
0
10
0.29526606953797424
20
0.69683719351852869
30
0
10
0.28353877426561236
20
0.67381050120384045
30
0
10
0.27389660095648327
20
0.65370939416582785
30
0
10
0.26662610690720229
20
0.63798695509395964
30
0
10
0.26190941076407603
20
0.62756667627240625
30
0
10
0.25985105503548589
20
0.62297867475297442
30
0
0
ARC
5
104
100
AcDbEntity
8
0
100
AcDbCircle
10
0
20
0
30
0
40
0.67500000000002014
100
AcDbArc
50
67.358461989714286
51
82.631234997481499
0
SPLINE
5
105
100
AcDbEntity
8
0
100
AcDbSpline
70
1064
71
5
72
21
73
15
74
0
42
0.000000001
43
0.0000000001
44
0.0000000001
40
-0.97652160370871588
40
-0.97652160370871588
40
-0.97652160370871588
40
-0.97652160370871588
40
-0.97652160370871588
40
-0.97652160370871588
40
-0.89999999999999991
40
-0.79999999999999993
40
-0.69999999999999996
40
-0.59999999999999998
40
-0.5
40
-0.40000000000000002
40
-0.30000000000000004
40
-0.20000000000000001
40
-0.10000000000000001
40
0
40
0
40
0
40
0
40
0
40
0
10
0.086572100978962202
20
0.669425329168301
30
0
10
0.087077730781476098
20
0.67442729337910901
30
0
10
0.088190272950080736
20
0.68580588649451624
30
0
10
0.089737879281212823
20
0.70305042890350344
30
0
10
0.091421209728068054
20
0.72527137474236236
30
0
10
0.092769256548448698
20
0.75106903495066735
30
0
10
0.093211277422287797
20
0.77524795109154976
30
0
10
0.092556241537433914
20
0.79616675448635499
30
0
10
0.090681839740745368
20
0.81346198023139427
30
0
10
0.087503710608436841
20
0.82688293231593835
30
0
10
0.083040710183329244
20
0.83648564505646383
30
0
10
0.07849646221237172
20
0.84127384185246146
30
0
10
0.074569127540273505
20
0.84332224039795667
30
0
10
0.071723973061847232
20
0.84401346973379021
30
0
10
0.070244659108325058
20
0.84419048046758061
30
0
0
LINE
5
106
100
AcDbEntity
8
0
100
AcDbLine
10
0.070244659108325058
20
0.8441904804675805
30
0
11
-0.069755340891674941
21
0.84419048046758061
31
0
0
SPLINE
5
107
100
AcDbEntity
8
0
100
AcDbSpline
70
1064
71
5
72
21
73
15
74
0
42
0.000000001
43
0.0000000001
44
0.0000000001
40
0
40
0
40
0
40
0
40
0
40
0
40
0.10000000000000001
40
0.20000000000000001
40
0.30000000000000004
40
0.40000000000000002
40
0.5
40
0.59999999999999998
40
0.69999999999999996
40
0.79999999999999993
40
0.89999999999999991
40
0.9764878187317535
40
0.9764878187317535
40
0.9764878187317535
40
0.9764878187317535
40
0.9764878187317535
40
0.9764878187317535
10
-0.069755340891674927
20
0.84419048046758061
30
0
10
-0.071259500904440262
20
0.84401666712131185
30
0
10
-0.074152664027999499
20
0.8433316198459555
30
0
10
-0.078146961227716166
20
0.84129185522211214
30
0
10
-0.082770225665303482
20
0.8365138798851891
30
0
10
-0.08731388319040867
20
0.82692150475151538
30
0
10
-0.090553437142955093
20
0.81350798316484629
30
0
10
-0.092469405338769781
20
0.79621623048831458
30
0
10
-0.093147133945035682
20
0.77529631904052454
30
0
10
-0.092710679663796078
20
0.75111174665788583
30
0
10
-0.09135346912999838
20
0.72530639851205359
30
0
10
-0.089653282644389737
20
0.70307724251837611
30
0
10
-0.088088495653196028
20
0.68582596384804029
30
0
10
-0.08696313492429826
20
0.67444338960249084
30
0
10
-0.08645172251556614
20
0.66944088586976191
30
0
0
ARC
5
108
100
AcDbEntity
8
0
100
AcDbCircle
10
0
20
0
30
0
40
0.67500000000000004
100
AcDbArc
50
97.358461989714328
51
112.6312349974815
0
SPLINE
5
109
100
AcDbEntity
8
0
100
AcDbSpline
70
1064
71
5
72
21
73
15
74
0
42
0.000000001
43
0.0000000001
44
0.0000000001
40
-0.97652160370871577
40
-0.97652160370871577
40
-0.97652160370871577
40
-0.97652160370871577
40
-0.97652160370871577
40
-0.97652160370871577
40
-0.89999999999999991
40
-0.79999999999999993
40
-0.69999999999999996
40
-0.59999999999999998
40
-0.5
40
-0.40000000000000002
40
-0.30000000000000004
40
-0.20000000000000001
40
-0.10000000000000001
40
0
40
0
40
0
40
0
40
0
40
0
10
-0.25973902587737746
20
0.6230253914859899
30
0
10
-0.26180211972889395
20
0.6276100344626272
30
0
10
-0.26652792650580442
20
0.63802045624419879
30
0
10
-0.27380993131247999
20
0.6537284712125857
30
0
10
-0.28346259730196904
20
0.67381404002858336
30
0
10
-0.29519398461418106
20
0.69682949253736481
30
0
10
-0.30690064137887457
20
0.71799005858826204
30
0
10
-0.31792732079295116
20
0.73577875580250862
30
0
10
-0.32819821323830223
20
0.74981965976355502
30
0
10
-0.33766102984566088
20
0.75985348064558966
30
0
10
-0.34632745796116748
20
0.76593817361157546
30
0
10
-0.35265699054311145
20
0.76781274968974988
30
0
10
-0.35708236141105953
20
0.76762304753117472
30
0
10
-0.35989195213498448
20
0.76679909245663436
30
0
10
-0.36126158096580274
20
0.76621273127207845
30
0
0
LINE
5
110
100
AcDbEntity
8
0
100
AcDbLine
10
-0.36126158096580274
20
0.76621273127207845
30
0
11
-0.48250513749562418
21
0.69621273127207839
31
0
0
SPLINE
5
111
100
AcDbEntity
8
0
100
AcDbSpline
70
1064
71
5
72
21
73
15
74
0
42
0.000000001
43
0.0000000001
44
0.0000000001
40
0
40
0
40
0
40
0
40
0
40
0
40
0.10000000000000001
40
0.20000000000000001
40
0.30000000000000004
40
0.40000000000000002
40
0.5
40
0.59999999999999998
40
0.69999999999999996
40
0.79999999999999993
40
0.89999999999999991
40
0.97648781873175361
40
0.97648781873175361
40
0.97648781873175361
40
0.97648781873175361
40
0.97648781873175361
40
0.97648781873175361
10
-0.48250513749562413
20
0.69621273127207839
30
0
10
-0.48372087160490124
20
0.69531012449231022
30
0
10
-0.4858839007295177
20
0.69327027458727875
30
0
10
-0.48832318126281571
20
0.68950663800543122
30
0
10
-0.48993805804571799
20
0.68305715776620668
30
0
10
-0.48907679332171855
20
0.67247808845526258
30
0
10
-0.48517556854821958
20
0.65924186103072291
30
0
10
-0.47818896934037219
20
0.64330877983898149
30
0
10
-0.46831594380637481
20
0.62485274077714159
30
0
10
-0.45584567711991159
20
0.60412651385473271
30
0
10
-0.44176762424644278
20
0.58245703207383914
30
0
10
-0.429180641561896
20
0.56405611152143165
30
0
10
-0.41919985694084294
20
0.549898459440753
30
0
10
-0.41253397883842136
20
0.54060354134809352
30
0
10
-0.40958983083428435
20
0.53652695223738978
30
0
0
ARC
5
112
100
AcDbEntity
8
0
100
AcDbCircle
10
0
20
0
30
0
40
0.67499999999999993
100
AcDbArc
50
127.35846198971436
51
142.63123499748153
0
SPLINE
5
113
100
AcDbEntity
8
0
100
AcDbSpline
70
1064
71
5
72
21
73
15
74
0
42
0.000000001
43
0.0000000001
44
0.0000000001
40
-0.97652160370871577
40
-0.97652160370871577
40
-0.97652160370871577
40
-0.97652160370871577
40
-0.97652160370871577
40
-0.97652160370871577
40
-0.89999999999999991
40
-0.79999999999999993
40
-0.69999999999999996
40
-0.59999999999999998
40
-0.5
40
-0.40000000000000002
40
-0.30000000000000004
40
-0.20000000000000001
40
-0.10000000000000001
40
0
40
0
40
0
40
0
40
0
40
0
10
-0.5364532905070275
20
0.40968630329092359
30
0
10
-0.54053230368115079
20
0.41262517365021512
30
0
10
-0.54983018329411781
20
0.41927795998871181
30
0
10
-0.5639905919313728
20
0.4292404975910234
30
0
10
-0.58239283030051503
20
0.44180877744039343
30
0
10
-0.60406023598891589
20
0.4558750503364864
30
0
10
-0.62477878116597407
20
0.46834730971267519
30
0
10
-0.6432225142650746
20
0.47823943369340399
30
0
10
-0.65913782002280941
20
0.48526376699309209
30
0
10
-0.67234977003715257
20
0.48922190247027758
30
0
10
-0.68289746342824598
20
0.49015818709529635
30
0
10
-0.68931628747737794
20
0.48861685130935006
30
0
10
-0.69305391999090094
20
0.48623987898689719
30
0
10
-0.69507511939478694
20
0.48412151759880578
30
0
10
-0.69596807216375312
20
0.48292889950177798
30
0
0
LINE
5
114
100
AcDbEntity
8
0
100
AcDbLine
10
-0.69596807216375312
20
0.48292889950177809
30
0
11
-0.76596807216375318
21
0.36168534297195665
31
0
0
SPLINE
5
115
100
AcDbEntity
8
0
100
AcDbSpline
70
1064
71
5
72
21
73
15
74
0
42
0.000000001
43
0.0000000001
44
0.0000000001
40
0
40
0
40
0
40
0
40
0
40
0
40
0.10000000000000001
40
0.20000000000000001
40
0.30000000000000004
40
0.40000000000000002
40
0.5
40
0.59999999999999998
40
0.69999999999999996
40
0.79999999999999993
40
0.89999999999999991
40
0.9764878187317535
40
0.9764878187317535
40
0.9764878187317535
40
0.9764878187317535
40
0.9764878187317535
40
0.9764878187317535
10
-0.76596807216375318
20
0.36168534297195665
30
0
10
-0.76656962539675022
20
0.36029579551641072
30
0
10
-0.76742293861527788
20
0.35744771911643791
30
0
10
-0.76765359923314724
20
0.35296867395929654
30
0
10
-0.76582738343150991
20
0.34657582183947122
30
0
10
-0.75979197164567103
20
0.33784471142979694
30
0
10
-0.74979529817367785
20
0.32833241461662693
30
0
10
-0.73577818517775107
20
0.3180272611479425
30
0
10
-0.71799987472217697
20
0.30698037523414978
30
0
10
-0.69683719351852857
20
0.29526606953797441
30
0
10
-0.67381050120383734
20
0.28353877426561097
30
0
10
-0.65370939416582119
20
0.27389660095648022
30
0
10
-0.63798695509394898
20
0.26662610690719757
30
0
10
-0.6275666762723916
20
0.26190941076406959
30
0
10
-0.62297867475295587
20
0.25985105503547773
30
0
0
ARC
5
116
100
AcDbEntity
8
0
100
AcDbCircle
10
0
20
0
30
0
40
0.67499999999999993
100
AcDbArc
50
157.35846198971433
51
172.63123499748153
0
SPLINE
5
117
100
AcDbEntity
8
0
100
AcDbSpline
70
1064
71
5
72
21
73
15
74
0
42
0.000000001
43
0.0000000001
44
0.0000000001
40
-0.97652160370866514
40
-0.97652160370866514
40
-0.97652160370866514
40
-0.97652160370866514
40
-0.97652160370866514
40
-0.97652160370866514
40
-0.89999999999999991
40
-0.79999999999999993
40
-0.69999999999999996
40
-0.59999999999999998
40
-0.5
40
-0.40000000000000002
40
-0.30000000000000004
40
-0.20000000000000001
40
-0.10000000000000001
40
0
40
0
40
0
40
0
40
0
40
0
10
-0.66942532916831765
20
0.086572100978963909
30
0
10
-0.67442729337912222
20
0.08707773078147743
30
0
10
-0.68580588649452567
20
0.088190272950081638
30
0
10
-0.70305042890350933
20
0.089737879281213337
30
0
10
-0.72527137474236503
20
0.091421209728068248
30
0
10
-0.75106903495066735
20
0.092769256548448739
30
0
10
-0.77524795109154976
20
0.093211277422287839
30
0
10
-0.79616675448635499
20
0.09255624153743397
30
0
10
-0.81346198023139427
20
0.09068183974074541
30
0
10
-0.82688293231593835
20
0.087503710608436883
30
0
10
-0.83648564505646383
20
0.083040710183329286
30
0
10
-0.84127384185246146
20
0.078496462212371762
30
0
10
-0.84332224039795667
20
0.074569127540273547
30
0
10
-0.84401346973379021
20
0.071723973061847274
30
0
10
-0.84419048046758061
20
0.0702446591083251
30
0
0
LINE
5
118
100
AcDbEntity
8
0
100
AcDbLine
10
-0.8441904804675805
20
0.0702446591083251
30
0
11
-0.84419048046758061
21
-0.0697553408916749
31
0
0
SPLINE
5
119
100
AcDbEntity
8
0
100
AcDbSpline
70
1064
71
5
72
21
73
15
74
0
42
0.000000001
43
0.0000000001
44
0.0000000001
40
0
40
0
40
0
40
0
40
0
40
0
40
0.10000000000000001
40
0.20000000000000001
40
0.30000000000000004
40
0.40000000000000002
40
0.5
40
0.59999999999999998
40
0.69999999999999996
40
0.79999999999999993
40
0.89999999999999991
40
0.97648781873169155
40
0.97648781873169155
40
0.97648781873169155
40
0.97648781873169155
40
0.97648781873169155
40
0.97648781873169155
10
-0.84419048046758061
20
-0.069755340891674886
30
0
10
-0.84401666712131185
20
-0.071259500904440207
30
0
10
-0.8433316198459555
20
-0.074152664027999457
30
0
10
-0.84129185522211214
20
-0.078146961227716125
30
0
10
-0.8365138798851891
20
-0.08277022566530344
30
0
10
-0.82692150475151538
20
-0.087313883190408628
30
0
10
-0.81350798316484629
20
-0.090553437142955051
30
0
10
-0.79621623048831458
20
-0.092469405338769725
30
0
10
-0.77529631904052454
20
-0.093147133945035626
30
0
10
-0.75111174665788583
20
-0.092710679663796036
30
0
10
-0.72530639851205703
20
-0.091353469129998505
30
0
10
-0.70307724251838355
20
-0.08965328264439025
30
0
10
-0.68582596384805194
20
-0.088088495653197013
30
0
10
-0.67444338960250683
20
-0.086963134924299801
30
0
10
-0.66944088586978212
20
-0.086451722515568166
30
0
0
ARC
5
120
100
AcDbEntity
8
0
100
AcDbCircle
10
0
20
0
30
0
40
0.67500000000002025
100
AcDbArc
50
187.35846198971427
51
202.6312349974815
0
SPLINE
5
121
100
AcDbEntity
8
0
100
AcDbSpline
70
1064
71
5
72
21
73
15
74
0
42
0.000000001
43
0.0000000001
44
0.0000000001
40
-0.97652160370866503
40
-0.97652160370866503
40
-0.97652160370866503
40
-0.97652160370866503
40
-0.97652160370866503
40
-0.97652160370866503
40
-0.89999999999999991
40
-0.79999999999999993
40
-0.69999999999999996
40
-0.59999999999999998
40
-0.5
40
-0.40000000000000002
40
-0.30000000000000004
40
-0.20000000000000001
40
-0.10000000000000001
40
0
40
0
40
0
40
0
40
0
40
0
10
-0.623025391486005
20
-0.25973902587738434
30
0
10
-0.62761003446263908
20
-0.26180211972889939
30
0
10
-0.63802045624420733
20
-0.26652792650580848
30
0
10
-0.65372847121259114
20
-0.2738099313124826
30
0
10
-0.6738140400285858
20
-0.28346259730197026
30
0
10
-0.69682949253736481
20
-0.29519398461418106
30
0
10
-0.71799005858826204
20
-0.30690064137887457
30
0
10
-0.73577875580250862
20
-0.31792732079295116
30
0
10
-0.74981965976355502
20
-0.32819821323830223
30
0
10
-0.75985348064558966
20
-0.33766102984566088
30
0
10
-0.76593817361157546
20
-0.34632745796116748
30
0
10
-0.76781274968974988
20
-0.35265699054311145
30
0
10
-0.76762304753117472
20
-0.35708236141105953
30
0
10
-0.76679909245663436
20
-0.35989195213498448
30
0
10
-0.76621273127207845
20
-0.36126158096580274
30
0
0
LINE
5
122
100
AcDbEntity
8
0
100
AcDbLine
10
-0.76621273127207845
20
-0.36126158096580274
30
0
11
-0.69621273127207839
21
-0.48250513749562418
31
0
0
SPLINE
5
123
100
AcDbEntity
8
0
100
AcDbSpline
70
1064
71
5
72
21
73
15
74
0
42
0.000000001
43
0.0000000001
44
0.0000000001
40
0
40
0
40
0
40
0
40
0
40
0
40
0.10000000000000001
40
0.20000000000000001
40
0.30000000000000004
40
0.40000000000000002
40
0.5
40
0.59999999999999998
40
0.69999999999999996
40
0.79999999999999993
40
0.89999999999999991
40
0.97648781873169166
40
0.97648781873169166
40
0.97648781873169166
40
0.97648781873169166
40
0.97648781873169166
40
0.97648781873169166
10
-0.69621273127207839
20
-0.48250513749562413
30
0
10
-0.69531012449231022
20
-0.48372087160490124
30
0
10
-0.69327027458727875
20
-0.4858839007295177
30
0
10
-0.68950663800543122
20
-0.48832318126281571
30
0
10
-0.68305715776620668
20
-0.48993805804571799
30
0
10
-0.67247808845526258
20
-0.48907679332171855
30
0
10
-0.65924186103072291
20
-0.48517556854821958
30
0
10
-0.64330877983898149
20
-0.47818896934037219
30
0
10
-0.62485274077714159
20
-0.46831594380637481
30
0
10
-0.60412651385473271
20
-0.45584567711991159
30
0
10
-0.58245703207384192
20
-0.44176762424644461
30
0
10
-0.56405611152143775
20
-0.42918064156190011
30
0
10
-0.54989845944076243
20
-0.4191998569408496
30
0
10
-0.54060354134810662
20
-0.41253397883843074
30
0
10
-0.53652695223740632
20
-0.40958983083429623
30
0
0
ARC
5
124
100
AcDbEntity
8
0
100
AcDbCircle
10
0
20
0
30
0
40
0.67500000000002025
100
AcDbArc
50
217.3584619897143
51
232.63123499748147
0
SPLINE
5
125
100
AcDbEntity
8
0
100
AcDbSpline
70
1064
71
5
72
21
73
15
74
0
42
0.000000001
43
0.0000000001
44
0.0000000001
40
-0.97652160370866481
40
-0.97652160370866481
40
-0.97652160370866481
40
-0.97652160370866481
40
-0.97652160370866481
40
-0.97652160370866481
40
-0.89999999999999991
40
-0.79999999999999993
40
-0.69999999999999996
40
-0.59999999999999998
40
-0.5
40
-0.40000000000000002
40
-0.30000000000000004
40
-0.20000000000000001
40
-0.10000000000000001
40
0
40
0
40
0
40
0
40
0
40
0
10
-0.40968630329093347
20
-0.53645329050704094
30
0
10
-0.41262517365022311
20
-0.54053230368116145
30
0
10
-0.41927795998871742
20
-0.54983018329412559
30
0
10
-0.42924049759102684
20
-0.56399059193137768
30
0
10
-0.44180877744039482
20
-0.58239283030051725
30
0
10
-0.4558750503364864
20
-0.60406023598891578
30
0
10
-0.46834730971267524
20
-0.62477878116597396
30
0
10
-0.47823943369340405
20
-0.64322251426507437
30
0
10
-0.48526376699309215
20
-0.6591378200228093
30
0
10
-0.48922190247027758
20
-0.67234977003715257
30
0
10
-0.49015818709529646
20
-0.68289746342824598
30
0
10
-0.48861685130935018
20
-0.68931628747737783
30
0
10
-0.48623987898689724
20
-0.69305391999090094
30
0
10
-0.48412151759880584
20
-0.69507511939478683
30
0
10
-0.48292889950177809
20
-0.695968072163753
30
0
0
LINE
5
126
100
AcDbEntity
8
0
100
AcDbLine
10
-0.48292889950177814
20
-0.695968072163753
30
0
11
-0.3616853429719567
21
-0.76596807216375307
31
0
0
SPLINE
5
127
100
AcDbEntity
8
0
100
AcDbSpline
70
1064
71
5
72
21
73
15
74
0
42
0.000000001
43
0.0000000001
44
0.0000000001
40
0
40
0
40
0
40
0
40
0
40
0
40
0.10000000000000001
40
0.20000000000000001
40
0.30000000000000004
40
0.40000000000000002
40
0.5
40
0.59999999999999998
40
0.69999999999999996
40
0.79999999999999993
40
0.89999999999999991
40
0.97648781873169166
40
0.97648781873169166
40
0.97648781873169166
40
0.97648781873169166
40
0.97648781873169166
40
0.97648781873169166
10
-0.3616853429719567
20
-0.76596807216375307
30
0
10
-0.36029579551641078
20
-0.76656962539675011
30
0
10
-0.35744771911643802
20
-0.76742293861527788
30
0
10
-0.3529686739592966
20
-0.76765359923314702
30
0
10
-0.34657582183947133
20
-0.76582738343150991
30
0
10
-0.33784471142979705
20
-0.75979197164567092
30
0
10
-0.32833241461662704
20
-0.74979529817367774
30
0
10
-0.31802726114794261
20
-0.73577818517775107
30
0
10
-0.30698037523414984
20
-0.71799987472217697
30
0
10
-0.29526606953797452
20
-0.69683719351852846
30
0
10
-0.28353877426561258
20
-0.67381050120384034
30
0
10
-0.27389660095648355
20
-0.65370939416582774
30
0
10
-0.26662610690720251
20
-0.63798695509395942
30
0
10
-0.26190941076407631
20
-0.62756667627240625
30
0
10
-0.25985105503548611
20
-0.62297867475297442
30
0
0
ARC
5
128
100
AcDbEntity
8
0
100
AcDbCircle
10
0
20
0
30
0
40
0.67500000000002036
100
AcDbArc
50
247.3584619897143
51
262.63123499748156
0
SPLINE
5
129
100
AcDbEntity
8
0
100
AcDbSpline
70
1064
71
5
72
21
73
15
74
0
42
0.000000001
43
0.0000000001
44
0.0000000001
40
-0.97652160370871588
40
-0.97652160370871588
40
-0.97652160370871588
40
-0.97652160370871588
40
-0.97652160370871588
40
-0.97652160370871588
40
-0.89999999999999991
40
-0.79999999999999993
40
-0.69999999999999996
40
-0.59999999999999998
40
-0.5
40
-0.40000000000000002
40
-0.30000000000000004
40
-0.20000000000000001
40
-0.10000000000000001
40
0
40
0
40
0
40
0
40
0
40
0
10
-0.086572100978962258
20
-0.669425329168301
30
0
10
-0.087077730781476181
20
-0.67442729337910901
30
0
10
-0.08819027295008082
20
-0.68580588649451624
30
0
10
-0.089737879281212921
20
-0.70305042890350344
30
0
10
-0.091421209728068137
20
-0.72527137474236236
30
0
10
-0.092769256548448795
20
-0.75106903495066735
30
0
10
-0.093211277422287894
20
-0.77524795109154976
30
0
10
-0.092556241537434011
20
-0.79616675448635499
30
0
10
-0.090681839740745465
20
-0.81346198023139427
30
0
10
-0.087503710608436938
20
-0.82688293231593835
30
0
10
-0.083040710183329342
20
-0.83648564505646383
30
0
10
-0.078496462212371818
20
-0.84127384185246146
30
0
10
-0.074569127540273603
20
-0.84332224039795667
30
0
10
-0.071723973061847329
20
-0.84401346973379021
30
0
10
-0.070244659108325155
20
-0.84419048046758061
30
0
0
LINE
5
130
100
AcDbEntity
8
0
100
AcDbLine
10
-0.070244659108325155
20
-0.8441904804675805
30
0
11
0.069755340891674844
21
-0.84419048046758061
31
0
0
SPLINE
5
131
100
AcDbEntity
8
0
100
AcDbSpline
70
1064
71
5
72
21
73
15
74
0
42
0.000000001
43
0.0000000001
44
0.0000000001
40
0
40
0
40
0
40
0
40
0
40
0
40
0.10000000000000001
40
0.20000000000000001
40
0.30000000000000004
40
0.40000000000000002
40
0.5
40
0.59999999999999998
40
0.69999999999999996
40
0.79999999999999993
40
0.89999999999999991
40
0.9764878187317535
40
0.9764878187317535
40
0.9764878187317535
40
0.9764878187317535
40
0.9764878187317535
40
0.9764878187317535
10
0.06975534089167483
20
-0.84419048046758061
30
0
10
0.071259500904440151
20
-0.84401666712131185
30
0
10
0.074152664027999401
20
-0.8433316198459555
30
0
10
0.078146961227716069
20
-0.84129185522211214
30
0
10
0.082770225665303385
20
-0.8365138798851891
30
0
10
0.087313883190408573
20
-0.82692150475151538
30
0
10
0.090553437142954996
20
-0.81350798316484629
30
0
10
0.092469405338769683
20
-0.79621623048831458
30
0
10
0.093147133945035585
20
-0.77529631904052454
30
0
10
0.092710679663795981
20
-0.75111174665788583
30
0
10
0.091353469129998296
20
-0.72530639851205359
30
0
10
0.089653282644389654
20
-0.70307724251837611
30
0
10
0.088088495653195917
20
-0.68582596384804029
30
0
10
0.086963134924298191
20
-0.67444338960249084
30
0
10
0.086451722515566071
20
-0.66944088586976191
30
0
0
ARC
5
132
100
AcDbEntity
8
0
100
AcDbCircle
10
0
20
0
30
0
40
0.67500000000000004
100
AcDbArc
50
277.35846198971439
51
292.63123499748144
0
SPLINE
5
133
100
AcDbEntity
8
0
100
AcDbSpline
70
1064
71
5
72
21
73
15
74
0
42
0.000000001
43
0.0000000001
44
0.0000000001
40
-0.97652160370866503
40
-0.97652160370866503
40
-0.97652160370866503
40
-0.97652160370866503
40
-0.97652160370866503
40
-0.97652160370866503
40
-0.89999999999999991
40
-0.79999999999999993
40
-0.69999999999999996
40
-0.59999999999999998
40
-0.5
40
-0.40000000000000002
40
-0.30000000000000004
40
-0.20000000000000001
40
-0.10000000000000001
40
0
40
0
40
0
40
0
40
0
40
0
10
0.25973902587738396
20
-0.62302539148600522
30
0
10
0.26180211972889911
20
-0.6276100344626393
30
0
10
0.26652792650580814
20
-0.63802045624420745
30
0
10
0.27380993131248221
20
-0.65372847121259126
30
0
10
0.28346259730196993
20
-0.67381404002858591
30
0
10
0.29519398461418067
20
-0.69682949253736481
30
0
10
0.30690064137887418
20
-0.71799005858826215
30
0
10
0.31792732079295066
20
-0.73577875580250873
30
0
10
0.32819821323830178
20
-0.74981965976355525
30
0
10
0.33766102984566043
20
-0.75985348064558988
30
0
10
0.3463274579611671
20
-0.76593817361157557
30
0
10
0.352656990543111
20
-0.76781274968975
30
0
10
0.35708236141105903
20
-0.76762304753117483
30
0
10
0.35989195213498404
20
-0.76679909245663458
30
0
10
0.3612615809658023
20
-0.76621273127207856
30
0
0
LINE
5
134
100
AcDbEntity
8
0
100
AcDbLine
10
0.36126158096580235
20
-0.76621273127207856
30
0
11
0.48250513749562379
21
-0.69621273127207872
31
0
0
SPLINE
5
135
100
AcDbEntity
8
0
100
AcDbSpline
70
1064
71
5
72
21
73
15
74
0
42
0.000000001
43
0.0000000001
44
0.0000000001
40
0
40
0
40
0
40
0
40
0
40
0
40
0.10000000000000001
40
0.20000000000000001
40
0.30000000000000004
40
0.40000000000000002
40
0.5
40
0.59999999999999998
40
0.69999999999999996
40
0.79999999999999993
40
0.89999999999999991
40
0.97648781873169166
40
0.97648781873169166
40
0.97648781873169166
40
0.97648781873169166
40
0.97648781873169166
40
0.97648781873169166
10
0.48250513749562379
20
-0.69621273127207872
30
0
10
0.48372087160490079
20
-0.69531012449231056
30
0
10
0.48588390072951732
20
-0.69327027458727897
30
0
10
0.48832318126281526
20
-0.68950663800543144
30
0
10
0.48993805804571755
20
-0.6830571577662069
30
0
10
0.48907679332171816
20
-0.67247808845526269
30
0
10
0.48517556854821914
20
-0.65924186103072313
30
0
10
0.47818896934037186
20
-0.64330877983898183
30
0
10
0.46831594380637448
20
-0.6248527407771417
30
0
10
0.45584567711991125
20
-0.60412651385473293
30
0
10
0.44176762424644433
20
-0.58245703207384214
30
0
10
0.42918064156189978
20
-0.56405611152143786
30
0
10
0.41919985694084921
20
-0.54989845944076265
30
0
10
0.41253397883843046
20
-0.54060354134810695
30
0
10
0.40958983083429584
20
-0.53652695223740665
30
0
0
ARC
5
136
100
AcDbEntity
8
0
100
AcDbCircle
10
0
20
0
30
0
40
0.67500000000002025
100
AcDbArc
50
307.35846198971421
51
322.6312349974815
0
SPLINE
5
137
100
AcDbEntity
8
0
100
AcDbSpline
70
1064
71
5
72
21
73
15
74
0
42
0.000000001
43
0.0000000001
44
0.0000000001
40
-0.97652160370871566
40
-0.97652160370871566
40
-0.97652160370871566
40
-0.97652160370871566
40
-0.97652160370871566
40
-0.97652160370871566
40
-0.89999999999999991
40
-0.79999999999999993
40
-0.69999999999999996
40
-0.59999999999999998
40
-0.5
40
-0.40000000000000002
40
-0.30000000000000004
40
-0.20000000000000001
40
-0.10000000000000001
40
0
40
0
40
0
40
0
40
0
40
0
10
0.53645329050702739
20
-0.40968630329092365
30
0
10
0.54053230368115079
20
-0.41262517365021534
30
0
10
0.54983018329411781
20
-0.41927795998871198
30
0
10
0.5639905919313728
20
-0.42924049759102351
30
0
10
0.58239283030051503
20
-0.44180877744039337
30
0
10
0.60406023598891578
20
-0.4558750503364864
30
0
10
0.62477878116597396
20
-0.46834730971267524
30
0
10
0.64322251426507437
20
-0.47823943369340405
30
0
10
0.6591378200228093
20
-0.48526376699309215
30
0
10
0.67234977003715257
20
-0.48922190247027758
30
0
10
0.68289746342824598
20
-0.49015818709529646
30
0
10
0.68931628747737783
20
-0.48861685130935018
30
0
10
0.69305391999090094
20
-0.48623987898689724
30
0
10
0.69507511939478683
20
-0.48412151759880584
30
0
10
0.695968072163753
20
-0.48292889950177809
30
0
0
LINE
5
138
100
AcDbEntity
8
0
100
AcDbLine
10
0.695968072163753
20
-0.48292889950177814
30
0
11
0.76596807216375307
21
-0.3616853429719567
31
0
0
SPLINE
5
139
100
AcDbEntity
8
0
100
AcDbSpline
70
1064
71
5
72
21
73
15
74
0
42
0.000000001
43
0.0000000001
44
0.0000000001
40
0
40
0
40
0
40
0
40
0
40
0
40
0.10000000000000001
40
0.20000000000000001
40
0.30000000000000004
40
0.40000000000000002
40
0.5
40
0.59999999999999998
40
0.69999999999999996
40
0.79999999999999993
40
0.89999999999999991
40
0.97648781873175372
40
0.97648781873175372
40
0.97648781873175372
40
0.97648781873175372
40
0.97648781873175372
40
0.97648781873175372
10
0.76596807216375307
20
-0.3616853429719567
30
0
10
0.76656962539675011
20
-0.36029579551641078
30
0
10
0.76742293861527788
20
-0.35744771911643802
30
0
10
0.76765359923314702
20
-0.3529686739592966
30
0
10
0.76582738343150991
20
-0.34657582183947133
30
0
10
0.75979197164567092
20
-0.33784471142979705
30
0
10
0.74979529817367774
20
-0.32833241461662704
30
0
10
0.73577818517775107
20
-0.31802726114794261
30
0
10
0.71799987472217697
20
-0.30698037523414984
30
0
10
0.69683719351852846
20
-0.29526606953797452
30
0
10
0.67381050120383734
20
-0.28353877426561097
30
0
10
0.65370939416582108
20
-0.27389660095648033
30
0
10
0.63798695509394876
20
-0.26662610690719762
30
0
10
0.62756667627239171
20
-0.26190941076406971
30
0
10
0.62297867475295576
20
-0.25985105503547778
30
0
0
ARC
5
140
100
AcDbEntity
8
0
100
AcDbCircle
10
0
20
0
30
0
40
0.67499999999999982
100
AcDbArc
50
337.35846198971433
51
352.63123499748161
0
SPLINE
5
141
100
AcDbEntity
8
0
100
AcDbSpline
70
1064
71
5
72
21
73
15
74
0
42
0.000000001
43
0.0000000001
44
0.0000000001
40
-0.97652160370866492
40
-0.97652160370866492
40
-0.97652160370866492
40
-0.97652160370866492
40
-0.97652160370866492
40
-0.97652160370866492
40
-0.89999999999999991
40
-0.79999999999999993
40
-0.69999999999999996
40
-0.59999999999999998
40
-0.5
40
-0.40000000000000002
40
-0.30000000000000004
40
-0.20000000000000001
40
-0.10000000000000001
40
0
40
0
40
0
40
0
40
0
40
0
10
0.66942532916831776
20
-0.08657210097896384
30
0
10
0.67442729337912222
20
-0.087077730781477361
30
0
10
0.68580588649452578
20
-0.088190272950081541
30
0
10
0.70305042890350944
20
-0.089737879281213254
30
0
10
0.72527137474236503
20
-0.091421209728068151
30
0
10
0.75106903495066735
20
-0.092769256548448656
30
0
10
0.77524795109154976
20
-0.093211277422287742
30
0
10
0.79616675448635499
20
-0.092556241537433873
30
0
10
0.81346198023139427
20
-0.090681839740745313
30
0
10
0.82688293231593835
20
-0.087503710608436786
30
0
10
0.83648564505646383
20
-0.083040710183329189
30
0
10
0.84127384185246146
20
-0.078496462212371665
30
0
10
0.84332224039795667
20
-0.07456912754027345
30
0
10
0.84401346973379021
20
-0.071723973061847177
30
0
10
0.84419048046758061
20
-0.070244659108325003
30
0
0
LINE
5
142
100
AcDbEntity
8
0
100
AcDbLine
10
0.8441904804675805
20
-0.070244659108325003
30
0
11
0.84419048046758061
21
0.069755340891674997
31
0
0
SPLINE
5
143
100
AcDbEntity
8
0
100
AcDbSpline
70
1064
71
5
72
21
73
15
74
0
42
0.000000001
43
0.0000000001
44
0.0000000001
40
0
40
0
40
0
40
0
40
0
40
0
40
0.10000000000000001
40
0.20000000000000001
40
0.30000000000000004
40
0.40000000000000002
40
0.5
40
0.59999999999999998
40
0.69999999999999996
40
0.79999999999999993
40
0.89999999999999991
40
0.97648781873169177
40
0.97648781873169177
40
0.97648781873169177
40
0.97648781873169177
40
0.97648781873169177
40
0.97648781873169177
10
0.84419048046758061
20
0.069755340891674983
30
0
10
0.84401666712131185
20
0.071259500904440304
30
0
10
0.8433316198459555
20
0.074152664027999554
30
0
10
0.84129185522211214
20
0.078146961227716222
30
0
10
0.8365138798851891
20
0.082770225665303537
30
0
10
0.82692150475151538
20
0.087313883190408725
30
0
10
0.81350798316484629
20
0.090553437142955148
30
0
10
0.79621623048831458
20
0.092469405338769822
30
0
10
0.77529631904052454
20
0.093147133945035723
30
0
10
0.75111174665788583
20
0.092710679663796133
30
0
10
0.72530639851205703
20
0.091353469129998602
30
0
10
0.70307724251838344
20
0.089653282644390334
30
0
10
0.68582596384805194
20
0.08808849565319711
30
0
10
0.67444338960250683
20
0.086963134924299856
30
0
10
0.66944088586978212
20
0.086451722515568236
30
0
0
ARC
5
144
100
AcDbEntity
8
0
100
AcDbCircle
10
0
20
0
30
0
40
0.67500000000002025
100
AcDbArc
50
7.3584619897143195
51
22.631234997481517
0
SPLINE
5
145
100
AcDbEntity
8
0
100
AcDbSpline
70
1064
71
5
72
21
73
15
74
0
42
0.000000001
43
0.0000000001
44
0.0000000001
40
-0.97652160370871577
40
-0.97652160370871577
40
-0.97652160370871577
40
-0.97652160370871577
40
-0.97652160370871577
40
-0.97652160370871577
40
-0.89999999999999991
40
-0.79999999999999993
40
-0.69999999999999996
40
-0.59999999999999998
40
-0.5
40
-0.40000000000000002
40
-0.30000000000000004
40
-0.20000000000000001
40
-0.10000000000000001
40
0
40
0
40
0
40
0
40
0
40
0
10
0.6230253914859899
20
0.25973902587737763
30
0
10
0.6276100344626272
20
0.26180211972889411
30
0
10
0.63802045624419867
20
0.26652792650580454
30
0
10
0.6537284712125857
20
0.27380993131248016
30
0
10
0.67381404002858336
20
0.28346259730196915
30
0
10
0.69682949253736481
20
0.29519398461418117
30
0
10
0.71799005858826204
20
0.30690064137887474
30
0
10
0.73577875580250862
20
0.31792732079295122
30
0
10
0.74981965976355491
20
0.32819821323830234
30
0
10
0.75985348064558955
20
0.33766102984566093
30
0
10
0.76593817361157535
20
0.34632745796116765
30
0
10
0.76781274968974988
20
0.35265699054311156
30
0
10
0.76762304753117472
20
0.35708236141105959
30
0
10
0.76679909245663436
20
0.35989195213498459
30
0
10
0.76621273127207834
20
0.36126158096580285
30
0
0
LINE
5
146
100
AcDbEntity
8
0
100
AcDbLine
10
0.76621273127207834
20
0.36126158096580291
30
0
11
0.69621273127207839
21
0.48250513749562418
31
0
0
SPLINE
5
147
100
AcDbEntity
8
0
100
AcDbSpline
70
1064
71
5
72
21
73
15
74
0
42
0.000000001
43
0.0000000001
44
0.0000000001
40
0
40
0
40
0
40
0
40
0
40
0
40
0.10000000000000001
40
0.20000000000000001
40
0.30000000000000004
40
0.40000000000000002
40
0.5
40
0.59999999999999998
40
0.69999999999999996
40
0.79999999999999993
40
0.89999999999999991
40
0.97648781873175361
40
0.97648781873175361
40
0.97648781873175361
40
0.97648781873175361
40
0.97648781873175361
40
0.97648781873175361
10
0.69621273127207839
20
0.48250513749562418
30
0
10
0.69531012449231022
20
0.48372087160490135
30
0
10
0.69327027458727863
20
0.48588390072951776
30
0
10
0.68950663800543111
20
0.48832318126281576
30
0
10
0.68305715776620657
20
0.48993805804571805
30
0
10
0.67247808845526236
20
0.48907679332171861
30
0
10
0.6592418610307228
20
0.48517556854821964
30
0
10
0.64330877983898149
20
0.47818896934037225
30
0
10
0.62485274077714137
20
0.46831594380637498
30
0
10
0.60412651385473259
20
0.4558456771199117
30
0
10
0.58245703207383903
20
0.44176762424644295
30
0
10
0.56405611152143154
20
0.42918064156189611
30
0
10
0.549898459440753
20
0.41919985694084305
30
0
10
0.54060354134809352
20
0.41253397883842147
30
0
10
0.53652695223738978
20
0.40958983083428435
30
0
0
CIRCLE
5
148
100
AcDbEntity
8
0
100
AcDbCircle
10
0
20
0
30
0
40
0.42999999999999999
0
ENDSEC
0
SECTION
2
OBJECTS
0
DICTIONARY
5
C
100
AcDbDictionary
3
ACAD_GROUP
350
D
3
ACAD_MLINESTYLE
350
17
0
DICTIONARY
5
D
100
AcDbDictionary
0
DICTIONARY
5
1A
330
C
100
AcDbDictionary
0
DICTIONARY
5
17
100
AcDbDictionary
0
ENDSEC
0
EOF
