0
SECTION
2
HEADER
9
$INSUNITS
70
1
9
$ACADVER
1
AC1014
9
$HANDSEED
5
FFFF
0
ENDSEC
0
SECTION
2
TABLES
0
TABLE
2
VPORT
5
8
100
AcDbSymbolTable
0
ENDTAB
0
TABLE
2
LTYPE
5
5
100
AcDbSymbolTable
0
LTYPE
5
14
100
AcDbSymbolTableRecord
100
AcDbLinetypeTableRecord
2
BYBLOCK
70
0
0
LTYPE
5
15
100
AcDbSymbolTableRecord
100
AcDbLinetypeTableRecord
2
BYLAYER
70
0
0
ENDTAB
0
TABLE
2
LAYER
5
2
100
AcDbSymbolTable
70
2
0
LAYER
5
50
100
AcDbSymbolTableRecord
100
AcDbLayerTableRecord
2
0
70
0
6
CONTINUOUS
0
ENDTAB
0
TABLE
2
STYLE
5
3
100
AcDbSymbolTable
70
1
0
STYLE
5
11
100
AcDbSymbolTableRecord
100
AcDbTextStyleTableRecord
2
STANDARD
70
0
0
ENDTAB
0
TABLE
2
VIEW
5
6
100
AcDbSymbolTable
70
0
0
ENDTAB
0
TABLE
2
UCS
5
7
100
AcDbSymbolTable
70
0
0
ENDTAB
0
TABLE
2
APPID
5
9
100
AcDbSymbolTable
70
2
0
APPID
5
12
100
AcDbSymbolTableRecord
100
AcDbRegAppTableRecord
2
ACAD
70
0
0
ENDTAB
0
TABLE
2
DIMSTYLE
5
A
100
AcDbSymbolTable
70
1
0
ENDTAB
0
TABLE
2
BLOCK_RECORD
5
1
100
AcDbSymbolTable
70
1
0
BLOCK_RECORD
5
1F
100
AcDbSymbolTableRecord
100
AcDbBlockTableRecord
2
*MODEL_SPACE
0
BLOCK_RECORD
5
1B
100
AcDbSymbolTableRecord
100
AcDbBlockTableRecord
2
*PAPER_SPACE
0
ENDTAB
0
ENDSEC
0
SECTION
2
BLOCKS
0
BLOCK
5
20
100
AcDbEntity
100
AcDbBlockBegin
2
*MODEL_SPACE
0
ENDBLK
5
21
100
AcDbEntity
100
AcDbBlockEnd
0
BLOCK
5
1C
100
AcDbEntity
100
AcDbBlockBegin
2
*PAPER_SPACE
0
ENDBLK
5
1D
100
AcDbEntity
100
AcDbBlockEnd
0
ENDSEC
0
SECTION
2
ENTITIES
0
CIRCLE
5
100
100
AcDbEntity
8
0
100
AcDbCircle
10
1.1624003703950561
20
0.0024956951171785117
30
0
40
0.069999999999999965
0
ARC
5
101
100
AcDbEntity
8
0
100
AcDbCircle
10
1.1624003703950561
20
0.0024956951171785117
30
0
40
0.29999999999999999
100
AcDbArc
50
226.6004726972285
51
253.39952730277139
0
SPLINE
5
102
100
AcDbEntity
8
0
100
AcDbSpline
70
1064
71
5
72
21
73
15
74
0
42
0.000000001
43
0.0000000001
44
0.0000000001
40
-1
40
-1
40
-1
40
-1
40
-1
40
-1
40
-0.89999999999999991
40
-0.79999999999999993
40
-0.69999999999999996
40
-0.59999999999999998
40
-0.5
40
-0.40000000000000002
40
-0.30000000000000004
40
-0.20000000000000001
40
-0.10000000000000001
40
0
40
0
40
0
40
0
40
0
40
0
10
1.0766914882927461
20
-0.28500037012332585
30
0
10
1.075993311872617
20
-0.29164820751686937
30
0
10
1.0746765899940693
20
-0.30470724376070751
30
0
10
1.0729403947533818
20
-0.32358589827043766
30
0
10
1.0711111477897546
20
-0.34731414708142733
30
0
10
1.0696966822021621
20
-0.37438286758383971
30
0
10
1.0692546613283231
20
-0.39856178372472206
30
0
10
1.069909697213177
20
-0.41948058711952746
30
0
10
1.0717840990098655
20
-0.43677581286456668
30
0
10
1.074962228142174
20
-0.45019676494911065
30
0
10
1.0794252285672816
20
-0.45979947768963619
30
0
10
1.0839694765382391
20
-0.46458767448563365
30
0
10
1.0878968112103373
20
-0.46663607303112903
30
0
10
1.0907419656887636
20
-0.46732730236696257
30
0
10
1.0922212796422859
20
-0.46750431310075302
30
0
0
LINE
5
103
100
AcDbEntity
8
0
100
AcDbLine
10
1.0922212796422857
20
-0.46750431310075313
30
0
11
1.232221279642286
21
-0.46750431310075291
31
0
0
SPLINE
5
104
100
AcDbEntity
8
0
100
AcDbSpline
70
1064
71
5
72
21
73
15
74
0
42
0.000000001
43
0.0000000001
44
0.0000000001
40
0
40
0
40
0
40
0
40
0
40
0
40
0.10000000000000001
40
0.20000000000000001
40
0.30000000000000004
40
0.40000000000000002
40
0.5
40
0.59999999999999998
40
0.69999999999999996
40
0.79999999999999993
40
0.89999999999999991
40
1
40
1
40
1
40
1
40
1
40
1
10
1.232221279642286
20
-0.46750431310075291
30
0
10
1.233725439655051
20
-0.46733049975448421
30
0
10
1.2366186027786106
20
-0.46664545247912786
30
0
10
1.2406128999783272
20
-0.4646056878552845
30
0
10
1.2452361644159144
20
-0.45982771251836146
30
0
10
1.2497798219410194
20
-0.45023533738468774
30
0
10
1.2530193758935659
20
-0.43682181579801876
30
0
10
1.2549353440893807
20
-0.419530063121487
30
0
10
1.2556130726956467
20
-0.39861015167369696
30
0
10
1.2551766184144071
20
-0.37442557929105819
30
0
10
1.2537524366405579
20
-0.34734687220625055
30
0
10
1.2519044148563547
20
-0.32360741795609199
30
0
10
1.2501483858337461
20
-0.30471865520860125
30
0
10
1.2488159264431302
20
-0.29165213546373225
30
0
10
1.248109252497366
20
-0.28500037012332574
30
0
0
ARC
5
105
100
AcDbEntity
8
0
100
AcDbCircle
10
1.1624003703950561
20
0.0024956951171785117
30
0
40
0.29999999999999999
100
AcDbArc
50
286.60047269722855
51
313.39952730277145
0
SPLINE
5
106
100
AcDbEntity
8
0
100
AcDbSpline
70
1064
71
5
72
21
73
15
74
0
42
0.000000001
43
0.0000000001
44
0.0000000001
40
-1
40
-1
40
-1
40
-1
40
-1
40
-1
40
-0.89999999999999991
40
-0.79999999999999993
40
-0.69999999999999996
40
-0.59999999999999998
40
-0.5
40
-0.40000000000000002
40
-0.30000000000000004
40
-0.20000000000000001
40
-0.10000000000000001
40
0
40
0
40
0
40
0
40
0
40
0
10
1.368524825330246
20
-0.21547840673363972
30
0
10
1.3739329331832184
20
-0.21940696394656653
30
0
10
1.38458402938005
20
-0.22707679666502673
30
0
10
1.4000653261544023
20
-0.23801971310425657
30
0
10
1.4196999689302234
20
-0.2514680118500483
30
0
10
1.442434935739457
20
-0.26622733523288833
30
0
10
1.4631534809165152
20
-0.27869959460907712
30
0
10
1.4815972140156157
20
-0.28859171858980609
30
0
10
1.4975125197733508
20
-0.29561605188949425
30
0
10
1.510724469787694
20
-0.29957418736667962
30
0
10
1.5212721631787873
20
-0.3005104719916985
30
0
10
1.527690987227919
20
-0.298969136205752
30
0
10
1.531428619741442
20
-0.29659216388329923
30
0
10
1.5334498191453281
20
-0.29447380249520788
30
0
10
1.5343427719142944
20
-0.29328118439818007
30
0
0
LINE
5
107
100
AcDbEntity
8
0
100
AcDbLine
10
1.5343427719142946
20
-0.29328118439818002
30
0
11
1.6043427719142944
21
-0.17203762786835872
31
0
0
SPLINE
5
108
100
AcDbEntity
8
0
100
AcDbSpline
70
1064
71
5
72
21
73
15
74
0
42
0.000000001
43
0.0000000001
44
0.0000000001
40
0
40
0
40
0
40
0
40
0
40
0
40
0.10000000000000001
40
0.20000000000000001
40
0.30000000000000004
40
0.40000000000000002
40
0.5
40
0.59999999999999998
40
0.69999999999999996
40
0.79999999999999993
40
0.89999999999999991
40
1
40
1
40
1
40
1
40
1
40
1
10
1.6043427719142944
20
-0.17203762786835872
30
0
10
1.6049443251472917
20
-0.17064808041281279
30
0
10
1.6057976383658195
20
-0.16780000401283993
30
0
10
1.6060282989836883
20
-0.16332095885569856
30
0
10
1.6042020831820512
20
-0.15692810673587343
30
0
10
1.5981666713962122
20
-0.14819699632619887
30
0
10
1.5881699979242194
20
-0.13868469951302906
30
0
10
1.5741528849282922
20
-0.12837954604434446
30
0
10
1.5563745744727182
20
-0.11733266013055188
30
0
10
1.5352118932690697
20
-0.10561835443437639
30
0
10
1.511048954145064
20
-0.093312378487732647
30
0
10
1.4895659728003465
20
-0.083043085174520498
30
0
10
1.4723298099036584
20
-0.075119469544136591
30
0
10
1.460347642170243
20
-0.069740153353486795
30
0
10
1.4542337074325558
20
-0.067026268272508085
30
0
0
ARC
5
109
100
AcDbEntity
8
0
100
AcDbCircle
10
1.1624003703950561
20
0.0024956951171785117
30
0
40
0.29999999999999943
100
AcDbArc
50
-13.399527302771521
51
13.399527302771377
0
SPLINE
5
110
100
AcDbEntity
8
0
100
AcDbSpline
70
1064
71
5
72
21
73
15
74
0
42
0.000000001
43
0.0000000001
44
0.0000000001
40
-1
40
-1
40
-1
40
-1
40
-1
40
-1
40
-0.89999999999999991
40
-0.79999999999999993
40
-0.69999999999999996
40
-0.59999999999999998
40
-0.5
40
-0.40000000000000002
40
-0.30000000000000004
40
-0.20000000000000001
40
-0.10000000000000001
40
0
40
0
40
0
40
0
40
0
40
0
10
1.4542337074325562
20
0.07201765850686459
30
0
10
1.4603399917056576
20
0.07473693868748138
30
0
10
1.4723078097810369
20
0.08012614221285938
30
0
10
1.4895253017960766
20
0.088061880283359581
30
0
10
1.5109891915355254
20
0.09834183034855766
30
0
10
1.535138623932351
20
0.11065122746812982
30
0
10
1.5562991899832483
20
0.1223578842328234
30
0
10
1.5740878871974953
20
0.13338456364689991
30
0
10
1.5881287911585418
20
0.14365545609225094
30
0
10
1.5981626120405763
20
0.15311827269960962
30
0
10
1.604247305006562
20
0.16178470081511623
30
0
10
1.6061218810847362
20
0.16811423339706016
30
0
10
1.6059321789261609
20
0.17253960426500825
30
0
10
1.6051082238516208
20
0.17534919498893309
30
0
10
1.6045218626670648
20
0.17671882381975146
30
0
0
LINE
5
111
100
AcDbEntity
8
0
100
AcDbLine
10
1.6045218626670648
20
0.17671882381975146
30
0
11
1.5345218626670649
21
0.29796238034957279
31
0
0
SPLINE
5
112
100
AcDbEntity
8
0
100
AcDbSpline
70
1064
71
5
72
21
73
15
74
0
42
0.000000001
43
0.0000000001
44
0.0000000001
40
0
40
0
40
0
40
0
40
0
40
0
40
0.10000000000000001
40
0.20000000000000001
40
0.30000000000000004
40
0.40000000000000002
40
0.5
40
0.59999999999999998
40
0.69999999999999996
40
0.79999999999999993
40
0.89999999999999991
40
1
40
1
40
1
40
1
40
1
40
1
10
1.5345218626670649
20
0.29796238034957279
30
0
10
1.5336192558872968
20
0.29917811445884995
30
0
10
1.5315794059822649
20
0.30134114358346636
30
0
10
1.5278157694004175
20
0.30378042411676431
30
0
10
1.5213662891611932
20
0.30539530089966666
30
0
10
1.5107872198502488
20
0.30453403617566732
30
0
10
1.4975509924257093
20
0.30063281140216824
30
0
10
1.481617911233968
20
0.29364621219432097
30
0
10
1.463161872172128
20
0.28377318666032358
30
0
10
1.4424356452497191
20
0.27130291997386025
30
0
10
1.4196968878995624
20
0.25653018883569634
30
0
10
1.4000619283390485
20
0.24306002789874989
30
0
10
1.3845817944649683
20
0.23209488078164314
30
0
10
1.3739320861221689
20
0.22440767722742402
30
0
10
1.3685248253302462
20
0.22046979696799635
30
0
0
ARC
5
113
100
AcDbEntity
8
0
100
AcDbCircle
10
1.1624003703950561
20
0.0024956951171785117
30
0
40
0.30000000000000004
100
AcDbArc
50
46.600472697228447
51
73.399527302771375
0
SPLINE
5
114
100
AcDbEntity
8
0
100
AcDbSpline
70
1064
71
5
72
21
73
15
74
0
42
0.000000001
43
0.0000000001
44
0.0000000001
40
-1
40
-1
40
-1
40
-1
40
-1
40
-1
40
-0.89999999999999991
40
-0.79999999999999993
40
-0.69999999999999996
40
-0.59999999999999998
40
-0.5
40
-0.40000000000000002
40
-0.30000000000000004
40
-0.20000000000000001
40
-0.10000000000000001
40
0
40
0
40
0
40
0
40
0
40
0
10
1.2481092524973667
20
0.28999176035768287
30
0
10
1.2488074289174957
20
0.29663959775122645
30
0
10
1.2501241507960434
20
0.30969863399506453
30
0
10
1.2518603460367306
20
0.32857728850479473
30
0
10
1.253689593000358
20
0.3523055373157844
30
0
10
1.2551040585879505
20
0.37937425781819661
30
0
10
1.2555460794617896
20
0.40355317395907908
30
0
10
1.2548910435769358
20
0.42447197735388442
30
0
10
1.2530166417802471
20
0.44176720309892381
30
0
10
1.2498385126479385
20
0.45518815518346778
30
0
10
1.2453755122228309
20
0.46479086792399321
30
0
10
1.2408312642518735
20
0.46957906471999084
30
0
10
1.2369039295797755
20
0.47162746326548588
30
0
10
1.234058775101349
20
0.47231869260131959
30
0
10
1.2325794611478269
20
0.47249570333511004
30
0
0
LINE
5
115
100
AcDbEntity
8
0
100
AcDbLine
10
1.2325794611478271
20
0.47249570333511015
30
0
11
1.0925794611478268
21
0.47249570333511004
31
0
0
SPLINE
5
116
100
AcDbEntity
8
0
100
AcDbSpline
70
1064
71
5
72
21
73
15
74
0
42
0.000000001
43
0.0000000001
44
0.0000000001
40
0
40
0
40
0
40
0
40
0
40
0
40
0.10000000000000001
40
0.20000000000000001
40
0.30000000000000004
40
0.40000000000000002
40
0.5
40
0.59999999999999998
40
0.69999999999999996
40
0.79999999999999993
40
0.89999999999999991
40
1
40
1
40
1
40
1
40
1
40
1
10
1.092579461147827
20
0.47249570333511004
30
0
10
1.0910753011350616
20
0.47232188998884123
30
0
10
1.0881821380115022
20
0.4716368427134851
30
0
10
1.0841878408117855
20
0.46959707808964168
30
0
10
1.0795645763741983
20
0.46481910275271865
30
0
10
1.0750209188490933
20
0.45522672761904476
30
0
10
1.0717813648965469
20
0.44181320603237589
30
0
10
1.0698653967007321
20
0.42452145335584401
30
0
10
1.0691876680944661
20
0.40360154190805425
30
0
10
1.0696241223757057
20
0.37941696952541526
30
0
10
1.0710483041495547
20
0.35233826244060751
30
0
10
1.0728963259337583
20
0.32859880819044918
30
0
10
1.0746523549563665
20
0.30971004544295827
30
0
10
1.0759848143469823
20
0.29664352569808944
30
0
10
1.0766914882927467
20
0.28999176035768287
30
0
0
ARC
5
117
100
AcDbEntity
8
0
100
AcDbCircle
10
1.1624003703950561
20
0.0024956951171785117
30
0
40
0.29999999999999988
100
AcDbArc
50
106.6004726972284
51
133.39952730277139
0
SPLINE
5
118
100
AcDbEntity
8
0
100
AcDbSpline
70
1064
71
5
72
21
73
15
74
0
42
0.000000001
43
0.0000000001
44
0.0000000001
40
-1
40
-1
40
-1
40
-1
40
-1
40
-1
40
-0.89999999999999991
40
-0.79999999999999993
40
-0.69999999999999996
40
-0.59999999999999998
40
-0.5
40
-0.40000000000000002
40
-0.30000000000000004
40
-0.20000000000000001
40
-0.10000000000000001
40
0
40
0
40
0
40
0
40
0
40
0
10
0.95627591545986645
20
0.22046979696799671
30
0
10
0.95086780760689382
20
0.22439835418092352
30
0
10
0.94021671141006247
20
0.23206818689938366
30
0
10
0.92473541463570996
20
0.24301110333861356
30
0
10
0.90510077185988891
20
0.25645940208440532
30
0
10
0.88236580505065509
20
0.2712187254672454
30
0
10
0.86164725987359703
20
0.2836909848434343
30
0
10
0.84320352677449639
20
0.29358310882416316
30
0
10
0.82728822101676158
20
0.30060744212385115
30
0
10
0.81407627100241853
20
0.30456557760103664
30
0
10
0.80352857761132512
20
0.30550186222605558
30
0
10
0.79710975356219349
20
0.30396052644010924
30
0
10
0.79337212104867039
20
0.30158355411765642
30
0
10
0.79135092164478438
20
0.2994651927295649
30
0
10
0.7904579688758181
20
0.2982725746325372
30
0
0
LINE
5
119
100
AcDbEntity
8
0
100
AcDbLine
10
0.7904579688758181
20
0.29827257463253715
30
0
11
0.72045796887581792
21
0.17702901810271576
31
0
0
SPLINE
5
120
100
AcDbEntity
8
0
100
AcDbSpline
70
1064
71
5
72
21
73
15
74
0
42
0.000000001
43
0.0000000001
44
0.0000000001
40
0
40
0
40
0
40
0
40
0
40
0
40
0.10000000000000001
40
0.20000000000000001
40
0.30000000000000004
40
0.40000000000000002
40
0.5
40
0.59999999999999998
40
0.69999999999999996
40
0.79999999999999993
40
0.89999999999999991
40
1
40
1
40
1
40
1
40
1
40
1
10
0.72045796887581792
20
0.17702901810271576
30
0
10
0.71985641564282077
20
0.17563947064716984
30
0
10
0.71900310242429311
20
0.17279139424719694
30
0
10
0.71877244180642386
20
0.16831234909005566
30
0
10
0.72059865760806097
20
0.16191949697023045
30
0
10
0.72663406939389996
20
0.15318838656055608
30
0
10
0.73663074286589314
20
0.14367608974738608
30
0
10
0.75064785586182003
20
0.13337093627870164
30
0
10
0.76842616631739402
20
0.1223240503649089
30
0
10
0.78958884752104241
20
0.11060974466873359
30
0
10
0.81375178664504821
20
0.098303768722089763
30
0
10
0.83523476798976559
20
0.088034475408877613
30
0
10
0.85247093088645398
20
0.080110859778493707
30
0
10
0.86445309861986941
20
0.07473154358784373
30
0
10
0.87056703335755636
20
0.072017658506865118
30
0
0
ARC
5
121
100
AcDbEntity
8
0
100
AcDbCircle
10
1.1624003703950561
20
0.0024956951171785117
30
0
40
0.29999999999999943
100
AcDbArc
50
166.6004726972285
51
193.39952730277139
0
SPLINE
5
122
100
AcDbEntity
8
0
100
AcDbSpline
70
1064
71
5
72
21
73
15
74
0
42
0.000000001
43
0.0000000001
44
0.0000000001
40
-1
40
-1
40
-1
40
-1
40
-1
40
-1
40
-0.89999999999999991
40
-0.79999999999999993
40
-0.69999999999999996
40
-0.59999999999999998
40
-0.5
40
-0.40000000000000002
40
-0.30000000000000004
40
-0.20000000000000001
40
-0.10000000000000001
40
0
40
0
40
0
40
0
40
0
40
0
10
0.87056703335755592
20
-0.067026268272507572
30
0
10
0.86446074908445469
20
-0.069745548453124445
30
0
10
0.85249293100907519
20
-0.075134751978502362
30
0
10
0.83527543899403556
20
-0.083070490049002563
30
0
10
0.8138115492545871
20
-0.093350440114200642
30
0
10
0.78966211685776111
20
-0.1056598372337728
30
0
10
0.76850155080686389
20
-0.11736649399846638
30
0
10
0.75071285359261697
20
-0.12839317341254297
30
0
10
0.73667194963157068
20
-0.13866406585789409
30
0
10
0.72663812874953615
20
-0.14812688246525268
30
0
10
0.72055343578355036
20
-0.15679331058075938
30
0
10
0.71867885970537615
20
-0.16312284316270323
30
0
10
0.71886856186395121
20
-0.16754821403065123
30
0
10
0.71969251693849134
20
-0.17035780475457624
30
0
10
0.72027887812304747
20
-0.17172743358539452
30
0
0
LINE
5
123
100
AcDbEntity
8
0
100
AcDbLine
10
0.72027887812304747
20
-0.17172743358539452
30
0
11
0.79027887812304753
21
-0.29297099011521593
31
0
0
SPLINE
5
124
100
AcDbEntity
8
0
100
AcDbSpline
70
1064
71
5
72
21
73
15
74
0
42
0.000000001
43
0.0000000001
44
0.0000000001
40
0
40
0
40
0
40
0
40
0
40
0
40
0.10000000000000001
40
0.20000000000000001
40
0.30000000000000004
40
0.40000000000000002
40
0.5
40
0.59999999999999998
40
0.69999999999999996
40
0.79999999999999993
40
0.89999999999999991
40
1
40
1
40
1
40
1
40
1
40
1
10
0.79027887812304753
20
-0.29297099011521593
30
0
10
0.79118148490281548
20
-0.29418672422449305
30
0
10
0.79322133480784707
20
-0.29634975334910951
30
0
10
0.79698497138969471
20
-0.29878903388240746
30
0
10
0.80343445162891902
20
-0.3004039106653098
30
0
10
0.81401352093986346
20
-0.29954264594131036
30
0
10
0.82724974836440279
20
-0.29564142116781134
30
0
10
0.84318282955614421
20
-0.28865482195996395
30
0
10
0.86163886861798422
20
-0.27878179642596668
30
0
10
0.88236509554039322
20
-0.26631152973950334
30
0
10
0.90510385289054973
20
-0.25153879860133949
30
0
10
0.92473881245106382
20
-0.23806863766439298
30
0
10
0.9402189463251438
20
-0.22710349054728612
30
0
10
0.95086865466794335
20
-0.21941628699306701
30
0
10
0.95627591545986601
20
-0.21547840673363933
30
0
0
ENDSEC
0
SECTION
2
OBJECTS
0
DICTIONARY
5
C
100
AcDbDictionary
3
ACAD_GROUP
350
D
3
ACAD_MLINESTYLE
350
17
0
DICTIONARY
5
D
100
AcDbDictionary
0
DICTIONARY
5
1A
330
C
100
AcDbDictionary
0
DICTIONARY
5
17
100
AcDbDictionary
0
ENDSEC
0
EOF
