0
SECTION
2
HEADER
9
$INSUNITS
70
1
9
$ACADVER
1
AC1014
9
$HANDSEED
5
FFFF
0
ENDSEC
0
SECTION
2
TABLES
0
TABLE
2
VPORT
5
8
100
AcDbSymbolTable
0
ENDTAB
0
TABLE
2
LTYPE
5
5
100
AcDbSymbolTable
0
LTYPE
5
14
100
AcDbSymbolTableRecord
100
AcDbLinetypeTableRecord
2
BYBLOCK
70
0
0
LTYPE
5
15
100
AcDbSymbolTableRecord
100
AcDbLinetypeTableRecord
2
BYLAYER
70
0
0
ENDTAB
0
TABLE
2
LAYER
5
2
100
AcDbSymbolTable
70
2
0
LAYER
5
50
100
AcDbSymbolTableRecord
100
AcDbLayerTableRecord
2
0
70
0
6
CONTINUOUS
0
ENDTAB
0
TABLE
2
STYLE
5
3
100
AcDbSymbolTable
70
1
0
STYLE
5
11
100
AcDbSymbolTableRecord
100
AcDbTextStyleTableRecord
2
STANDARD
70
0
0
ENDTAB
0
TABLE
2
VIEW
5
6
100
AcDbSymbolTable
70
0
0
ENDTAB
0
TABLE
2
UCS
5
7
100
AcDbSymbolTable
70
0
0
ENDTAB
0
TABLE
2
APPID
5
9
100
AcDbSymbolTable
70
2
0
APPID
5
12
100
AcDbSymbolTableRecord
100
AcDbRegAppTableRecord
2
ACAD
70
0
0
ENDTAB
0
TABLE
2
DIMSTYLE
5
A
100
AcDbSymbolTable
70
1
0
ENDTAB
0
TABLE
2
BLOCK_RECORD
5
1
100
AcDbSymbolTable
70
1
0
BLOCK_RECORD
5
1F
100
AcDbSymbolTableRecord
100
AcDbBlockTableRecord
2
*MODEL_SPACE
0
BLOCK_RECORD
5
1B
100
AcDbSymbolTableRecord
100
AcDbBlockTableRecord
2
*PAPER_SPACE
0
ENDTAB
0
ENDSEC
0
SECTION
2
BLOCKS
0
BLOCK
5
20
100
AcDbEntity
100
AcDbBlockBegin
2
*MODEL_SPACE
0
ENDBLK
5
21
100
AcDbEntity
100
AcDbBlockEnd
0
BLOCK
5
1C
100
AcDbEntity
100
AcDbBlockBegin
2
*PAPER_SPACE
0
ENDBLK
5
1D
100
AcDbEntity
100
AcDbBlockEnd
0
ENDSEC
0
SECTION
2
ENTITIES
0
CIRCLE
5
100
100
AcDbEntity
8
0
100
AcDbCircle
10
0.63004576785416477
20
0.89595089617479606
30
0
40
0.034999999999999989
0
LINE
5
101
100
AcDbEntity
8
0
100
AcDbLine
10
0.8302957678541647
20
-0.22704910382520466
30
0
11
0.8302957678541647
21
0.89595089617479606
31
0
0
ARC
5
102
100
AcDbEntity
8
0
100
AcDbCircle
10
0.63004576785416477
20
0.89595089617479606
30
0
40
0.20024999999999996
100
AcDbArc
50
0
51
180
0
LINE
5
103
100
AcDbEntity
8
0
100
AcDbLine
10
0.42979576785416485
20
0.89595089617479606
30
1.9746174533813447e-32
11
0.42979576785416485
21
0.10095089617479569
31
0
0
ARC
5
104
100
AcDbEntity
8
0
100
AcDbCircle
10
0.42979576785416412
20
-0.3040491038252045
30
0
40
0.40500000000000019
100
AcDbArc
50
89.999999999999901
51
169.07716341146795
0
LINE
5
105
100
AcDbEntity
8
0
100
AcDbLine
10
0.032133101856127708
20
-0.22730710382520461
30
0
11
-0.095918005250238636
21
-0.22730710382520461
31
4.4027650504577549e-83
0
LINE
5
106
100
AcDbEntity
8
0
100
AcDbLine
10
-0.095917831791953984
20
-0.22730694543602253
30
0
11
-0.12520423214583581
21
-0.25404910382520357
31
-2.3259574704815654e-35
0
LINE
5
107
100
AcDbEntity
8
0
100
AcDbLine
10
-0.12520423214583581
20
-0.25404910382520357
30
-2.3259574704815654e-35
11
-0.12520423214583581
21
-0.35404910382520549
31
0
0
LINE
5
108
100
AcDbEntity
8
0
100
AcDbLine
10
-0.12520423214583581
20
-0.35404910382520549
30
0
11
-0.095635459197628073
21
-0.38104910382520435
31
-2.3483838061630364e-35
0
LINE
5
109
100
AcDbEntity
8
0
100
AcDbLine
10
-0.095635459197628073
20
-0.38104910382520435
30
-2.3483838061630364e-35
11
0.032182890799106328
21
-0.38104910382520435
31
-4.3947621921405524e-83
0
ARC
5
110
100
AcDbEntity
8
0
100
AcDbCircle
10
0.42979576785416412
20
-0.3040491038252045
30
0
40
0.40500000000000058
100
AcDbArc
50
190.95998908149747
51
214.07716341146778
0
LINE
5
111
100
AcDbEntity
8
0
100
AcDbLine
10
0.094341011500413713
20
-0.53097428297531979
30
0
11
0.0037952053270571568
21
-0.62152008914867574
31
-7.8754187012405434e-35
0
LINE
5
112
100
AcDbEntity
8
0
100
AcDbLine
10
0.0037952159825221186
20
-0.62151985449708169
30
0
11
0.0019961652363033769
21
-0.6611380283244106
31
-3.4458769572539033e-35
0
LINE
5
113
100
AcDbEntity
8
0
100
AcDbLine
10
0.0019961652363033769
20
-0.6611380283244106
30
-3.4458769572539033e-35
11
0.072706843354959069
21
-0.73184870644306632
31
-6.1502152376542522e-35
0
LINE
5
114
100
AcDbEntity
8
0
100
AcDbLine
10
0.072706843354959069
20
-0.73184870644306632
30
-6.1502152376542522e-35
11
0.11270700631003751
21
-0.73003230967205923
31
1.5798506528148471e-36
0
LINE
5
115
100
AcDbEntity
8
0
100
AcDbLine
10
0.11270700631003751
20
-0.73003230967205923
30
1.5798506528148471e-36
11
0.20308822835280324
21
-0.63965108762929213
31
7.8611036380173567e-35
0
ARC
5
116
100
AcDbEntity
8
0
100
AcDbCircle
10
0.42979576785416412
20
-0.3040491038252045
30
0
40
0.40500000000000019
100
AcDbArc
50
235.95998908149733
51
259.07716341146789
0
LINE
5
117
100
AcDbEntity
8
0
100
AcDbLine
10
0.35305376785416387
20
-0.70171176982324301
30
0
11
0.35305376785416387
21
-0.82976287692960793
31
0
0
LINE
5
118
100
AcDbEntity
8
0
100
AcDbLine
10
0.3530536094649811
20
-0.8297627034713223
30
0
11
0.3797957678541628
21
-0.85904910382520483
31
-2.5472484567358504e-35
0
LINE
5
119
100
AcDbEntity
8
0
100
AcDbLine
10
0.3797957678541628
20
-0.85904910382520483
30
-2.5472484567358504e-35
11
0.47979576785416472
21
-0.85904910382520483
31
-3.4382873759932883e-83
0
LINE
5
120
100
AcDbEntity
8
0
100
AcDbLine
10
0.47979576785416472
20
-0.85904910382520483
30
-3.4382873759932883e-83
11
0.50679576785416358
21
-0.82948033087699846
31
2.5718084281363805e-35
0
LINE
5
121
100
AcDbEntity
8
0
100
AcDbLine
10
0.50679576785416358
20
-0.82948033087699846
30
2.5718084281363805e-35
11
0.50679576785416358
21
-0.70166198088026444
31
0
0
ARC
5
122
100
AcDbEntity
8
0
100
AcDbCircle
10
0.42979576785416412
20
-0.3040491038252045
30
0
40
0.40500000000000258
100
AcDbArc
50
280.95998908149738
51
304.07716341146772
0
LINE
5
123
100
AcDbEntity
8
0
100
AcDbLine
10
0.65672094700427841
20
-0.63950386017895944
30
0
11
0.74726675317763491
21
-0.73004966635231527
31
-7.8754187012405434e-35
0
LINE
5
124
100
AcDbEntity
8
0
100
AcDbLine
10
0.74726651852604087
20
-0.73004965569684865
30
0
11
0.78688469235336989
21
-0.73184870644306632
31
-1.5647635699567885e-36
0
LINE
5
125
100
AcDbEntity
8
0
100
AcDbLine
10
0.78688469235336989
20
-0.73184870644306632
30
-1.5647635699567885e-36
11
0.85759537047202561
21
-0.66113802832441337
31
6.1502152376540085e-35
0
LINE
5
126
100
AcDbEntity
8
0
100
AcDbLine
10
0.85759537047202561
20
-0.66113802832441337
30
6.1502152376540085e-35
11
0.85577897370101852
21
-0.62113786536933502
31
3.4791012936145426e-35
0
LINE
5
127
100
AcDbEntity
8
0
100
AcDbLine
10
0.85577897370101852
20
-0.62113786536933502
30
3.4791012936145426e-35
11
0.7653977516582513
21
-0.53075664332656791
31
7.8611036380173567e-35
0
ARC
5
128
100
AcDbEntity
8
0
100
AcDbCircle
10
0.42979576785416412
20
-0.3040491038252045
30
0
40
0.40500000000000125
100
AcDbArc
50
325.95998908149699
51
349.07716341146789
0
LINE
5
129
100
AcDbEntity
8
0
100
AcDbLine
10
0.8274584338522023
20
-0.38079110382520442
30
0
11
0.95550954095856866
21
-0.38079110382520442
31
-4.4027650504577549e-83
0
LINE
5
130
100
AcDbEntity
8
0
100
AcDbLine
10
0.95550936750028359
20
-0.38079126221438647
30
0
11
0.98479576785416545
21
-0.35404910382520549
31
2.3259574704815654e-35
0
LINE
5
131
100
AcDbEntity
8
0
100
AcDbLine
10
0.98479576785416545
20
-0.35404910382520549
30
2.3259574704815654e-35
11
0.98479576785416545
21
-0.25404910382520357
31
0
0
LINE
5
132
100
AcDbEntity
8
0
100
AcDbLine
10
0.98479576785416545
20
-0.25404910382520357
30
0
11
0.95522699490595775
21
-0.22704910382520466
31
2.3483838061630364e-35
0
LINE
5
133
100
AcDbEntity
8
0
100
AcDbLine
10
0.95522699490595775
20
-0.22704910382520466
30
2.3483838061630364e-35
11
0.8302957678541647
21
-0.22704910382520466
31
0
0
CIRCLE
5
134
100
AcDbEntity
8
0
100
AcDbCircle
10
0.42979576785416412
20
-0.3040491038252045
30
0
40
0.054607924080047665
0
CIRCLE
5
135
100
AcDbEntity
8
0
100
AcDbCircle
10
0.10979576785416478
20
0.3959508961747949
30
0
40
0.034999999999999989
0
CIRCLE
5
136
100
AcDbEntity
8
0
100
AcDbCircle
10
0.10946406179566313
20
1.5459508961747945
30
0
40
0.034999999999999989
0
LWPOLYLINE
5
137
100
AcDbEntity
8
0
100
AcDbPolyline
90
5
70
1
43
0.0
10
-0.040204232145835649
20
1.5459508961747945
42
-0.99999999999999989
10
0.25913235573716192
20
1.5459508961747945
10
0.25913235573716192
20
0.3959508961747949
10
0.25979576785416519
20
0.3959508961747949
42
-0.99999999999999989
10
-0.040204232145835649
20
0.3959508961747949
0
CIRCLE
5
138
100
AcDbEntity
8
0
100
AcDbCircle
10
-0.26020423214583588
20
0.3959508961747949
30
0
40
0.034999999999999989
0
CIRCLE
5
139
100
AcDbEntity
8
0
100
AcDbCircle
10
-0.26020423214583588
20
1.5459508961747945
30
0
40
0.034999999999999989
0
LWPOLYLINE
5
140
100
AcDbEntity
8
0
100
AcDbPolyline
90
4
70
1
43
0.0
10
-0.41020423214583668
20
1.5459508961747945
42
-0.99999999999999989
10
-0.11020423214583511
20
1.5459508961747945
10
-0.11020423214583511
20
0.3959508961747949
42
-0.99999999999999989
10
-0.41020423214583668
20
0.3959508961747949
0
CIRCLE
5
141
100
AcDbEntity
8
0
100
AcDbCircle
10
-0.58020423214583594
20
-0.3040491038252045
30
0
40
0.034999999999999989
0
CIRCLE
5
142
100
AcDbEntity
8
0
100
AcDbCircle
10
-0.78045423214583587
20
0.89595089617479606
30
0
40
0.035000000000000073
0
LWPOLYLINE
5
143
100
AcDbEntity
8
0
100
AcDbPolyline
90
34
70
1
43
0.0
10
-0.58020423214583594
20
0.89595089617479606
10
-0.58020423214583605
20
0.10095089617479229
42
-0.2629307604613802
10
-0.23332275646398359
20
-0.09500785950060267
10
-0.11330035769700586
20
-0.051051581335706808
10
-0.076249851502763019
20
-0.06623618947726774
10
-0.04186020544175393
20
-0.16013694689593205
10
-0.060325643927013721
20
-0.19563057105521248
10
-0.18035641079565892
20
-0.23965407481274653
42
-0.10102275475761359
10
-0.1871075070136009
20
-0.40151686613824056
10
-0.07115707258507617
20
-0.4553037358345251
10
-0.05569554779529054
20
-0.49223953939742526
10
-0.097776258192237217
20
-0.58295455365906113
10
-0.13593107729466067
20
-0.59499529922046401
10
-0.25193496453704561
20
-0.54125004805517052
42
-0.10102275475761145
10
-0.37116298782123303
20
-0.65093057950705857
10
-0.32720670965633719
20
-0.7709529782740363
10
-0.34239131779789811
20
-0.80800348446827919
10
-0.43629207521656238
20
-0.84239313052928821
10
-0.4717856993758428
20
-0.82392769204402849
10
-0.51580920313337753
20
-0.70389692517538038
42
-0.10102275475761348
10
-0.67767199445887094
20
-0.69714582895743848
10
-0.73145886415515682
20
-0.81309626338596186
10
-0.76839466771805842
20
-0.82855778817574888
10
-0.85910968197969295
20
-0.78647707777880083
10
-0.87115042754109717
20
-0.74832225867637592
10
-0.8174051763758009
20
-0.6323183714339935
42
-0.10102275475761156
10
-0.92708570782768862
20
-0.51309034814980636
10
-1.0471081065946664
20
-0.55704662631470225
10
-1.0841586127889091
20
-0.54186201817314128
10
-1.1185482588499183
20
-0.44796126075447701
10
-1.1000828203646584
20
-0.41246763659519659
10
-0.9800520534960151
20
-0.36844413283766303
42
-0.077375696469791713
10
-0.9807042321458358
20
-0.2438432071040347
10
-0.9807042321458358
20
0.89595089617479606
42
-0.99999999999999989
0
ENDSEC
0
SECTION
2
OBJECTS
0
DICTIONARY
5
C
100
AcDbDictionary
3
ACAD_GROUP
350
D
3
ACAD_MLINESTYLE
350
17
0
DICTIONARY
5
D
100
AcDbDictionary
0
DICTIONARY
5
1A
330
C
100
AcDbDictionary
0
DICTIONARY
5
17
100
AcDbDictionary
0
ENDSEC
0
EOF
