0
SECTION
2
HEADER
9
$INSUNITS
70
1
9
$ACADVER
1
AC1014
9
$HANDSEED
5
FFFF
0
ENDSEC
0
SECTION
2
TABLES
0
TABLE
2
VPORT
5
8
100
AcDbSymbolTable
0
ENDTAB
0
TABLE
2
LTYPE
5
5
100
AcDbSymbolTable
0
LTYPE
5
14
100
AcDbSymbolTableRecord
100
AcDbLinetypeTableRecord
2
BYBLOCK
70
0
0
LTYPE
5
15
100
AcDbSymbolTableRecord
100
AcDbLinetypeTableRecord
2
BYLAYER
70
0
0
ENDTAB
0
TABLE
2
LAYER
5
2
100
AcDbSymbolTable
70
2
0
LAYER
5
50
100
AcDbSymbolTableRecord
100
AcDbLayerTableRecord
2
0
70
0
6
CONTINUOUS
0
ENDTAB
0
TABLE
2
STYLE
5
3
100
AcDbSymbolTable
70
1
0
STYLE
5
11
100
AcDbSymbolTableRecord
100
AcDbTextStyleTableRecord
2
STANDARD
70
0
0
ENDTAB
0
TABLE
2
VIEW
5
6
100
AcDbSymbolTable
70
0
0
ENDTAB
0
TABLE
2
UCS
5
7
100
AcDbSymbolTable
70
0
0
ENDTAB
0
TABLE
2
APPID
5
9
100
AcDbSymbolTable
70
2
0
APPID
5
12
100
AcDbSymbolTableRecord
100
AcDbRegAppTableRecord
2
ACAD
70
0
0
ENDTAB
0
TABLE
2
DIMSTYLE
5
A
100
AcDbSymbolTable
70
1
0
ENDTAB
0
TABLE
2
BLOCK_RECORD
5
1
100
AcDbSymbolTable
70
1
0
BLOCK_RECORD
5
1F
100
AcDbSymbolTableRecord
100
AcDbBlockTableRecord
2
*MODEL_SPACE
0
BLOCK_RECORD
5
1B
100
AcDbSymbolTableRecord
100
AcDbBlockTableRecord
2
*PAPER_SPACE
0
ENDTAB
0
ENDSEC
0
SECTION
2
BLOCKS
0
BLOCK
5
20
100
AcDbEntity
100
AcDbBlockBegin
2
*MODEL_SPACE
0
ENDBLK
5
21
100
AcDbEntity
100
AcDbBlockEnd
0
BLOCK
5
1C
100
AcDbEntity
100
AcDbBlockBegin
2
*PAPER_SPACE
0
ENDBLK
5
1D
100
AcDbEntity
100
AcDbBlockEnd
0
ENDSEC
0
SECTION
2
ENTITIES
0
CIRCLE
5
100
100
AcDbEntity
8
0
100
AcDbCircle
10
-0.26020423214583588
20
1.5459508961747945
30
0
40
0.035000000000000073
0
CIRCLE
5
101
100
AcDbEntity
8
0
100
AcDbCircle
10
-0.78045423214583465
20
0.89595089617479329
30
0
40
0.035000000000000073
0
LWPOLYLINE
5
102
100
AcDbEntity
8
0
100
AcDbPolyline
90
13
70
1
43
0.0
10
-0.40000001276571917
20
2.0000000638285957
10
-0.11020423214583511
20
2.0000000638285957
10
-0.11020423214583444
20
1.6146895315991319
42
-0.40591163314301915
10
-0.18722981553440024
20
1.3979653072810749
10
-0.56847630674782212
20
0.86002932683331013
42
-1.6508685633820279
10
-0.87200438528237423
20
1.0904851334202625
10
-0.43156419891873005
20
1.5779195671576116
10
-0.91020423214583657
20
2.2942823735295828
10
-0.91020423214583679
20
2.9476194188200058
10
-0.44176056260036317
20
3.6487217053969303
10
-0.11020423214583511
20
3.6487217053969303
10
-0.11020423214583511
20
3.1500000638285957
10
-0.40000001276571917
20
3.1500000638285957
0
LINE
5
103
100
AcDbEntity
8
0
100
AcDbLine
10
0.28048962787057363
20
1.5779155341905231
30
0
11
0.75913235573716165
21
2.2942823735295828
31
6.2307566102819028e-34
0
CIRCLE
5
104
100
AcDbEntity
8
0
100
AcDbCircle
10
0.63004576785416477
20
0.89595089617479606
30
0
40
0.035000000000000073
0
CIRCLE
5
105
100
AcDbEntity
8
0
100
AcDbCircle
10
0.10946406179566348
20
1.5459508961747945
30
0
40
0.034999999999999989
0
LWPOLYLINE
5
106
100
AcDbEntity
8
0
100
AcDbPolyline
90
13
70
1
43
0.0
10
0.25499998723428058
20
2.0000000638285957
10
0.25499998723428058
20
3.1500000638285957
10
-0.040204232145835649
20
3.1500000638285957
10
-0.040204232145835649
20
3.6487217053969303
10
0.29068868619168808
20
3.6487217053969303
10
0.75913235573716098
20
2.9476194188199973
10
0.75913235573716165
20
2.2942823735295828
10
0.28048962787057363
20
1.5779155341905231
10
0.72150518409920517
20
1.0905278094510555
42
-1.6513886502939883
10
0.41806454149195355
20
0.86004881169529246
10
0.037087989042948667
20
1.3976717537005627
42
-0.4084879998696172
10
-0.040204232145835649
20
1.6154088099689823
10
-0.040204232145835649
20
2.0000000638285957
0
ENDSEC
0
SECTION
2
OBJECTS
0
DICTIONARY
5
C
100
AcDbDictionary
3
ACAD_GROUP
350
D
3
ACAD_MLINESTYLE
350
17
0
DICTIONARY
5
D
100
AcDbDictionary
0
DICTIONARY
5
1A
330
C
100
AcDbDictionary
0
DICTIONARY
5
17
100
AcDbDictionary
0
ENDSEC
0
EOF
